<svg width="40" height="40" viewBox="0 0 40 40" xmlns="http://www.w3.org/2000/svg">
  <g fill-rule="evenodd">
    <path d="M37.993 37.997V40H4.004v-2h5.58l-5.583-5.582v5.575H2.009V9.985H0V0h39.998v37.993h-1.996v-5.569l-5.583 5.573h5.574zm2-36.001h-1.989v2.01h-2.003v-2.01h-2.008v2.01h-1.99v-2.01h-2.004v2.01h-1.99v-2.01H26v2.01h-2v-2.01h-2.004v2.01h-1.984v-2.01h-2.02v2.01h-1.984v-2.01h-2.007v2.01h-1.997v-2.01h-2.01v2.01H8.01v-2.01H6v2.01H2.002v4h37.99v-6.01h.001zm-36.006 8v19.622l8.43 8.38h17.168l8.407-8.38V9.995H3.987v.001z"/>
    <path d="M13.998 16.007v3.991h2.005v1.995h9.992v-1.995H28v-3.991h-2.005v1.992h-9.992v-1.992"/>
    <path fill-opacity=".7" d="M5.99823742 4.00400153v2.0016577H8.0111847v-2.0016577M22 4v2.00165772h2.0129473V4M26 4v2.00165772h2.0129473V4M1.98705273 4v2.00165772H4V4"/>
    <path fill-opacity=".4" d="M4 6v2.00165772h2.01294727V6M20 6v2.00165772h2.0129473V6M28 6v2.00165772h2.0129473V6M32 6v2.00165772h2.0129473V6M24 6v2.00165772h2.0129473V6M16 6v2.00165772h2.0129473V6M12 6v2.00165772h2.0129473V6M8 6v2.00165772h2.0129473V6"/>
    <path fill-opacity=".7" d="M30 4v2.00165772h2.0129473V4M34 4v2.00165772h2.0129473V4M18 4v2.00165772h2.0129473V4M14 4v2.00165772h2.0129473V4M10 4v2.00165772h2.0129473V4"/>
  </g>
</svg>
