<svg width="35" height="29" viewBox="0 0 35 29" xmlns="http://www.w3.org/2000/svg">
  <path d="M.5 2.97211926C.53072395 1.74748132 1.28093135.63774896 2.9514864.49443753c3.0108045-.00637225 6.10732513-.00637225 9.2895618 0 .4258157.05868858.8269002.33225313 1.2032534.82069362.3409563.33989403 1.2720136 1.5239488 2.7931716 3.55216427H29.405813c.4211229 0 1.5382006.47624215 1.6093928 1.66703863v3.46756525c1.3191462.003567 1.0922782 0 1.9833585 0 .5243972.0726996.8559917.2355819 1.1225132.748059.1346345.4024809.1095771.6702588-.1014058 1.2153623-1.9850975 5.1287732-3.9087526 10.0770497-5.9467916 15.2263396-.0940008.2647317-.5654106 1.3521546-1.8784106 1.3120067H2.3421383C.87587145 28.5846336.5 27.6922451.5 26.8498528V2.97211926zm2 17.87261454l4.38425435-9.8764535c.3924774-.6322672.90689386-.9484009 1.5432494-.9484009H29.0237052V6.87083435H16.3407546c-.578902 0-1.0812421-.08088856-1.7644294-.86988357-1.3509071-1.79062363-1.2480018-1.7088823-2.7513435-3.51103684-3.98231655.00126948-4.4947578 0-8.66948713 0C2.67938232 2.5278778 2.5 2.56237794 2.5 3.0835497v17.7611841zm0 4.9070559V26.5h23.7034921l5.6570054-14.488086H8.58283667L2.5 25.7517897z" fill-rule="evenodd"/>
</svg>
