<svg width="41" height="33" viewBox="0 0 41 33" xmlns="http://www.w3.org/2000/svg">
  <g fill-rule="evenodd">
    <path d="M.00681022 5.00902146c0-3.08690574 2.53916573-5.02171284 4.98997504-5.00844163 2.9498731.01295472 5.02024934 2.41560364 5.00998694 5.00844163 0 2.59101725-2.0368236 4.99844564-5.00998694 4.9883468-2.62152033 0-4.98595047-2.0669551-4.98997504-4.9883468zm1.98049004-.00620613c.00532182 1.67511326 1.3922768 3.00948434 3.01355423 3.00218955C6.66221343 8.00367605 8.0033217 6.6330251 7.99931332 5.00281533c-.0019406-1.6131422-1.30127358-3.0083848-2.99845886-3.0083848-1.59008418-.0041827-3.01075887 1.29640128-3.01355424 3.0083848z"/>
    <path d="M8.3188881 8.85417102c.9556514-1.03116982 2.8065011-.5986047 3.6835649-.08895998 2.4671467 1.83232306 4.6276743 3.75374026 6.4815827 5.76425166.2486102.2844012.5479433.4467007.8979995.4868984h1.9155466c.3143351 0 .3237132-.1574096.5036176-.4146159 1.1391526-1.8495607 2.1791099-1.5742055 2.8502401-1.6005964h1.6744525c.6652629 0 1.8707245-.5150753 3.656241-.5150753.789775 0 2.12545.3171257 4.0156728.5150753.5993534.062766 1.345792 0 1.968343 0 1.1943347 0 3.8639331 1.2544509 4.1820565 3.2765072.3170343 2.0414197-.7325794 3.34078-1.2536144 3.8879152-.4321447.5017868-1.7299927 1.1707555-2.8136939.6395951-2.0830912-1.0780536-2.4066606-1.7447977-3.3282745-1.808858-2.7704895.0301745-3.9112722 0-6.6744198 0-1.1735793.8728829-.9212912 1.255107-3.0364932 2.0170138-2.4511962 0-3.9875557 0-5.8440959-.1021416-2.7400729-.6909079-3.3066521-2.6022705-6.1420436-4.7230456-2.1926951-2.0256712-2.69793786-2.0691447-3.50964373-4.1934451-.11447004-1.4111468-.05575356-1.9941563.77296184-3.14051878zm1.18097235 2.71590218c.60024135 1.1994555 1.46845875 1.8298154 2.41909555 2.6790419 1.3756843.8778449 4.2932888 4.7817271 6.0563031 4.7665496 1.4928008.0744531 3.1921599.0526306 4.8348486 0 .558965-.1526621 2.6179042-2.2061088 3.207111-1.9856942 2.7691512-.0121572 4.1846672-.0828526 6.9645031 0 1.6164489.198139 2.7759472 1.4487405 3.9664048 1.9856942 1.2742015-.3553137 1.3321148-2.2059955 1.2742015-2.3748063-.1000858-.587956-.8855575-1.135076-2.3564151-1.6413597H24.1185123c-.5768608 0-1.1496819 2.0304718-1.6276564 1.9476192-1.5915362.0828526-2.8568621 0-3.855599 0-.6802007.0197015-1.4206971-.8388944-2.4807775-1.9003875-1.283192-1.2849021-2.9848339-2.9293394-4.9708398-4.4775916-.3009058-.2345803-1.1044445-.3870248-1.44424554-.2754829-.1522372.0082894-.47447154.5583534-.2395336 1.2764173z"/>
    <path d="M.51899166 15.9570265c-1.12101523-2.2504758.5841196-4.468026 2.44073844-4.4499999 1.0428012.0687402 3.7126699 1.2298989 6.08743372 3.004329 3.53513468 3.2794643 5.98076768 6.4593 6.93538488 6.4593h21.8614171c2.8664719 1.5560494 2.5213981 4.8769802 1.0330494 5.8960482-.5946896.5487791-.6153044.5257356-.7251905 1.0899165 1.2021721 1.3567235 1.7126243 1.5651221 2.4544593 2.9339301.1519978 1.0608404-.7088988 2.2673864-2.7623182 1.8919964-1.8740477-.3378547-3.5561641-2.3730666-4.409544-3.911354-.6577766-.5177977-.5438031-.4596854-1.1646746-.8428948-5.5821564.0013032-7.9138157 0-13.3029161 0-2.7543212 1.3837952-.869848 1.4020405-4.3954651 4.0913921-1.1615596.7455507-4.1240573 1.7708407-4.3755811-.72082.0822813-1.8627922 2.0049037-2.9059107 2.2999672-3.5508328-1.8759429-1.4764431-2.55436167-1.587981-4.37808873-3.3986507-.69071285-.4216548-4.61000474-3.9553085-7.5986717-8.4923601zm1.7816869-.8883057c1.4820068 2.1029042 3.293101 4.2493467 5.43328262 6.4393275 3.36134242 3.0218258 5.41396022 4.5327388 6.15785342 4.5327388 8.4697226 0 12.8008381-.0356692 22.7445992 0 .7148531-.4642647 1.3145628-.7403526 1.3404389-1.6918579.1142365-.670824-.5266386-1.3533582-.8218606-1.3533582-6.7221576 0-12.076345.0237839-15.8842471 0-4.1178677-.02572-6.4128312.0147775-6.8626505-.4404932-3.7510287-3.4162256-5.4448075-5.2984071-6.3579693-6.2888208-.91316182-.9904137-1.98349106-1.1199429-3.07022598-1.9333689-1.1673661-.4880693-2.09597076-1.1101146-2.44358545-.6638917-.40972505.3768054-.4613644 1.0014873-.23563522 1.3997244zM12.4706356 30.8859849c1.0429084-.2824343 2.1100414-1.2333903 3.2013989-2.852868-.1063003-.0556267-.49313-.0686165-1.1604891-.0389693-.116294.4605976-.2748391.8939985-.4756351 1.3002026-.6313804.4981046-1.1531386 1.0286495-1.5652747 1.5916347zm22.8047703-2.8837266c.6673431 1.180191 1.2431809 1.8925294 2.5637817 2.6486206-1.3474593-1.4197133-1.6913757-2.0344543-1.6913757-2.6326752-.353653-.0159454-.4676361-.0159454-.872406-.0159454z"/>
  </g>
</svg>
