<svg width="56" height="57" viewBox="0 0 56 57" xmlns="http://www.w3.org/2000/svg">
  <path d="M.49153013 22.0256486C.6226127 10.8664141 8.43710456 2.4482775 18.5367987.77338006 26.0707967-.6471233 36.1008688 2.6877644 41.0224017 12.0041253c4.3454346 9.0203168 3.2544305 17.2278956-3.2730121 24.6227363l17.8695679 17.8761749-2.1203155 2.1190948-17.9352417-17.9364776c-5.0801229 3.9186689-10.6131903 5.4483439-16.5992022 4.5890248C7.57628156 41.4664753.45496 32.0741245.49153013 22.0256486zm3.01201893-.0268266c-.23367298 9.8057659 8.25376484 18.7151527 18.49893554 18.5048453 9.6126005.0421878 18.5426052-7.5630795 18.5052744-18.5048427-.0052651-10.8771967-8.9705034-18.6270785-18.5052744-18.50477553-10.2671524 0-18.55985226 8.19177913-18.49893554 18.50477293z" fill-rule="evenodd"/>
</svg>
