<svg width="40" height="42" viewBox="0 0 40 42" xmlns="http://www.w3.org/2000/svg">
  <g fill-rule="evenodd">
    <path d="M8.4067926 6.3522879c-.0107531.00578148-.02150864.01156943-.03226662.01736387C2.79914942 10.4085033-.77913132 17.7187547.93365052 26.2759432c2.32332523 9.4879052 10.17261408 15.082493 18.91809498 15.2142272 9.1892105.3338265 17.699416-6.67154 19.3953694-16.0867946 1.1422946-8.1067885-1.5481888-14.4323251-7.8069963-19.18769004-.6661971.93793844-1.0592634 1.49527652-1.7388892 2.41556774 2.8670026 2.260972 5.3235479 4.7935286 6.5951965 10.542179.6773071 5.1772178-.3187497 10.1582673-4.815981 14.7406643-4.0176235 3.8403066-11.0837836 6.099754-17.5481683 3.4670125-5.68696843-2.5438729-9.05101648-6.4788187-10.31548898-13.030459-.71146913-6.4995838 1.66944054-11.8327794 6.51499028-15.58753738.0128655-.00598233.0257202-.01195498.0385643-.01791796-.61507653-.80861617-.67201524-.9428509-1.76355258-2.39290325z"/>
    <path d="M18.0029144 22.9994659h3.995163V6.04936218l3.9457092 5.34910582 1.6123505-1.1855621L20.0022583-.03372192l-7.55513 10.24662782 1.6117859 1.1855621 3.9440002-5.34910582"/>
  </g>
</svg>
