<svg width="42" height="40" viewBox="0 0 42 40" xmlns="http://www.w3.org/2000/svg">
  <g fill-rule="evenodd">
    <path d="M1.30372886 37.8661936c.16185216-2.2493829 3.38116917-3.6976535 4.83320337-6.7363278-1.6211839-1.8577447-2.94569248-3.0776955-4.30983516-7.3170517-2.19645876-5.8949503.2082863-12.1718971 2.65755756-15.41177745C7.684735 4.04791907 12.5704254.7917042 19.3572241.08943862c7.076264-.59073472 11.7212477 1.7811754 15.2296354 4.23790914 5.8960838 4.71117764 7.2330336 10.02046214 7.4278874 14.22217414.0917253 7.8228904-4.2540323 12.9853083-7.8425766 15.0495981-4.924827 3.1490038-11.7332688 2.4675129-16.0083619 2.5868297-3.4379679.2318346-9.24444633 3.4840695-12.15828472 3.7744995-1.9839808.334739-4.70179482-.4268974-4.70179482-2.0942556zm2.2239919-.1777722c-.09146354.0971353 1.34626012.5160201 2.28407588.2681595 2.34084284-.168047 6.30685006-2.6016529 11.55986036-3.7430919 3.7118362-.1308391 14.9105521 1.482697 19.8385036-6.1700106 5.6356329-8.6860876 1.7131462-16.5566711-2.0445938-20.72221444-5.5541189-5.41529033-13.7268542-6.27763092-19.1956842-4.5448686-8.55009 2.4169663-12.44216183 9.43398034-12.96825333 14.73029514 0 9.0893018 3.75258114 10.2406899 5.1827103 13.371491.38613838 1.2939208-2.37254293 4.2271437-4.6566188 6.8102399z"/>
    <path d="M19.0129126 10.0025783v4.0085376h3.9848531v-4.0085376m-3.9929897 6.0028538V28.004776h3.9938812V16.0054321"/>
  </g>
</svg>
