<svg width="36" height="38" viewBox="0 0 36 38" xmlns="http://www.w3.org/2000/svg">
  <path d="M17.4517059 32.7998352l-7.2140249 4.0880709c-1.41700905.734235-3.16680077.1435021-3.88547947-1.0834975-.61850832-.9208478-.46097863-1.8520452-.38980865-2.2998341l1.35552167-8.5223065c.0977565-.6150667.04544522-.763782-.22938135-1.1404837L.7238718 17.1204206c-.89717363-.935978-.84059105-2.9031438.15569954-3.8643313.38325755-.369754.73372063-.8079163 1.86249593-.9779727l8.25652743-1.2723809c.7100151-.2119028.8580725-1.08258855 1.19199-1.72219203l3.1333558-6.8543412c.885933-1.65471105 2.6069379-1.89469683 3.8704154-1.37187728.7974175.27938363 1.3524009.99284886 1.661537 1.81456552l3.4332176 7.46018566c.279158.6103961.4965798.6584934 1.1596793.7624721 4.4910697.6781481 7.1623199 1.0925273 8.0137508 1.2431375 1.0634146.1487032 2.8922928 1.3527694 2.3633859 3.7296875-.2420184.7795656-.6409595 1.2795198-1.3319762 1.8959235l-5.4800111 5.8051936c-.4291021.4513699-.4501248.5987107-.3523683 1.2137774.9710418 5.9188546 1.4528497 8.903225 1.4454237 8.953111.1192475 1.4209137-.7955017 2.8869782-2.3431091 3.2004853-.5429077.1620483-1.4516754.0585327-2.0002211-.2479582l-7.2774199-4.1394855c-.4614642-.1949538-.7808765-.1160811-1.0345386.0514146zM2.8110837 14.3265957c-.81966118.2252375-.90747144 1.1019264-.51156142 1.6018816 1.92828812 2.1760981 3.85499168 4.0376881 6.14650898 6.4684732.78402814.6964436 1.00894697 1.6789479.87783142 2.7165323-.68003455 4.3796461-.71969844 4.2687022-1.44650397 8.8905123-.06427742 1.0858186.98590118 1.5593815 1.85542356.8665959 3.63434116-2.0736533 5.58706926-3.2100055 6.58781176-3.7274128.8644011-.437557 1.504654-.7642783 2.7662298-.2974008 3.2727152 1.793968 3.3239281 1.8922655 7.0444429 3.9280839.6808707.684581 1.8917952.5731145 1.9875843-.5969964-.4835964-3.5079289-.9658341-5.6415222-1.3737186-8.6826175-.297963-1.3231993.0802002-2.3230133.6464081-2.9408722 3.0745003-3.1721183 5.3959503-5.6276397 6.2404896-6.5468829.6759228-.8738629.1086163-1.5832288-.6288656-1.7414708-2.611175-.4029479-5.3281719-.827974-7.9546721-1.2425606-1.3784485-.1387176-2.2253875-.9826507-2.5454568-1.7898676-1.2547591-2.79144887-1.7575512-3.89627544-3.6287922-7.899868-.6712405-1.01141708-1.7092897-.39983408-1.8832804.2710328-1.3865288 2.81774884-2.1781222 4.9071736-3.0554656 6.6669044-.719253 1.6731506-1.0193257 2.2335244-2.6202604 2.6930783-1.2781115.2403115-3.792072.5676598-8.5041533 1.3628549z" fill-rule="evenodd"/>
</svg>
