<svg width="26" height="33" viewBox="0 0 26 33" xmlns="http://www.w3.org/2000/svg">
  <g fill-rule="evenodd">
    <path d="M.7525151 30.2518463V.74891565h22.9882773v7.17697437l2.1625415 2.26274208v22.6899916H3.74398804v-2.6267774H.7525151zm1.49557755-1.4952545h1.5023637V3.89009094H19.384613l2.8488312 2.76945496V2.25094604H2.24809265V28.7565918zM18.6949158 5.3099823v4.897644h5.0561218l-5.0561218-4.897644zm-13.4497986.07791138V31.3769073h19.1648407V11.7077484h-7.2094116V5.38789368H5.2451172z"/>
    <path d="M6.99797058 9.00193787h7.99958802v1.99861143H6.99797058m.00398254 3.0026093v1.9940796H22.9978485v-1.9940796M7 26v1.9940796h15.9958954V26M7 22v1.9940796h15.9958954V22M7 18v1.9940796h15.9958954V18"/>
  </g>
</svg>
