<svg width="42" height="34" viewBox="0 0 42 34" xmlns="http://www.w3.org/2000/svg">
  <g fill-rule="evenodd">
    <path d="M41.0570221 6.34076412V33.0460663l-40.10545923.0489922V6.4923284c.02388006-.9943338.5483677-1.50766046 1.57346288-1.53998H13.011833V2.29379218c.0401995-.79338076.4483625-1.226023 1.2244891-1.29792667H27.487366c.9220188-.03043782 1.4299071.4022044 1.5236648 1.2979267v2.6585562h10.4544095c.6328263 0 1.4735703.19872888 1.5915818 1.38841573zm-26.0649337-1.3232227H26.992291v-2.0289619H14.9920884v2.0289619zM3.04943857 11H38.9335659V8.49837083H3.04943857V11zm.016613 4.0105771v15.9335072H38.9584585V15.0105771h-2.9513948v2.0369103h-5.9990285v-2.0369103H12.0080485v2.0369103H5.98997605v-2.0369103h-2.9239245z"/>
    <path d="M22.9978576 18v2.9987998h2.9990772v3.9975825h-2.9990772v3.0008823h-3.9973575v-3.0008823H16v-3.9975825h3.0005001V18"/>
  </g>
</svg>
