<svg width="34" height="43" viewBox="0 0 34 43" xmlns="http://www.w3.org/2000/svg">
  <path d="M3.0009369 31.9607219c1.92749093-1.8123948 3.34474084-2.621878 4.62690123-3.487791 1.60580445-.8339386 3.49689477-1.9640733 3.65666227-3.1496812-.3670018-2.6649514-2.0577224-4.5775855-2.6407712-6.5096471-.74506056-2.2514879-1.16885494-2.9536608-1.43841028-6.0361521.0640522-4.1174341.1185552-6.3541794 1.29103997-8.40502256 1.27568305-1.91073246 1.9225346-2.32743475 4.0067528-3.27777508 2.2104431-.67112412 3.1073415-.56144798 5.8671146-.56144798 1.5352425.08918166 2.4982034-.0703625 4.7540471 1.4394713 1.5045845 1.29070492 2.452487 1.9556163 2.9704697 3.68420222.690054 2.30281336.8846129 5.4318166.5599961 8.4364623-.2742462 3.8396698-1.2839849 4.8846575-1.5737743 5.6729477-1.5749471 2.348711-1.7466683 3.3153576-1.9566915 5.1494731.1268759 1.6773635 1.2866284 2.5474571 2.1711295 2.8404666 2.3671951 1.1085443 4.6789892 2.6671573 6.1185209 4.2648603 1.2356372 1.3714051 2.2362986 2.4149411 2.1099253 4.8768464-.19305 2.5235004-.8573296 3.1611266-2.5274094 4.0310446-2.852417 1.0764344-2.9705813.946878-5.9862282 1.2689819-5.5847154.3993909-5.6313445.3919637-11.0095515.2215301-4.08850735.0300995-9.0683845-.6600113-10.9997231-1.6982489-1.22766705-.5088926-2.2364661-1.5323944-2.4027673-3.0608207-.5396691-2.8488465.78738973-4.1716054 2.4027673-5.6996999zm8.4251058-26.55139962c-.8897312 1.09349395-1.0099821 1.86401942-1.1492034 3.41479076-.0764045 1.29511406-.1316436 2.48089966 0 4.66532686.9614322 4.9676002 1.797074 5.1638898 3.4466695 9.1775833.8281163 2.4659532.6953229 3.7969179-.3661355 5.4071092-1.1247107 1.1377061-2.4923545 2.1062314-4.10293145 2.9055759-1.8524675 1.0884708-3.51708666 2.4016116-4.99385746 3.9394224-.8775545 1.0316177-1.67300815 2.5126216.13409983 3.1440302 1.8378693.9678813 4.68645355.9674808 6.60035395 1.2641774 4.0365928.2517194 8.1341469.2517194 12.2926623 0 2.5141111-.05578 4.6876377-.4410258 6.5205797-1.1557373 1.3632092-.4405541.7702119-3.143978-.2285342-3.7302338-1.6788613-1.8025613-3.0087807-2.8316183-5.267522-3.8031891-2.4261831-1.1538545-3.1829119-2.2118115-3.8732701-3.7460686-.783277-2.6167764.1174486-5.0258819.6903582-6.4151053.8977792-1.3819707 1.8410835-2.9225236 2.2681481-4.4321938.3247422-2.1208461.4113134-3.7298957.3860989-5.1813447-.0234633-1.35064443-.1846355-2.69077696-.3860989-3.85921215-.5269403-1.92213284-2.74079-3.2676781-4.1827871-3.46523277-1.5193618-.2848461-2.9229577-.2848461-4.2107876 0-1.8789501.41923555-3.0715644 1.04266938-3.5778428 1.8703015z" fill-rule="evenodd"/>
</svg>
