<svg width="36" height="43" viewBox="0 0 36 43" xmlns="http://www.w3.org/2000/svg">
  <g fill-rule="evenodd">
    <path d="M.5205542 34.761589c1.7348498-2.0249452 3.47232927-3.3546668 3.47232927-5.0310618 0-7.6205617-.0184624-7.8883737 0-16.2657226.30066736-3.97310126 3.47431644-5.74904766 4.8193734-6.68668945C11.3531295 5.1071603 12.1290217 4.66363418 13.9720925 4.00001563c.6976305-2.58597912.2492639-3.2168708 4.0319218-3.2773631 2.6896791.1869876 3.4989836-.2598369 4.003123 3.2773631 1.3538812.23272912 5.202629 2.56708835 7.0023923 4.02441903 1.6428971 1.23723823 2.0694601 2.07023114 2.7172721 4.18077124.3261549.7831744.2100259 3.5675708.265456 9.4523236 0 4.3196033-.014393 4.4579215 0 8.5300172.4936445 1.7055665 2.2006246 2.8239771 3.6504161 4.7489078.7262022.938627.3387059 1.8318048-.679211 2.3871763-1.623835.9520348-4.5398243.6836579-8.8483759.6836579-.953791-.1471772-1.7686214 1.9834102-3.560203 3.621938-.5290272.632905-1.3656851.3563169-2.0766566.438857-2.0129592.0603134-3.6168325.0957817-5.7434821-.0593846-1.2549884 0-.9706733-.2223988-1.5838178-.6628422-1.9794943-2.18332-2.3590528-3.4085986-3.5170294-3.3385682-1.71160042-.0341057-6.19667564.2910858-7.64927492-.2835572-1.6727452-.580428-2.6637808-1.4149567-1.4640689-2.9621425zm14.573974-31.04949183c.965848-.20492358 1.9372951-.30738537 2.9143412-.30738537.9770462 0 1.948165.1116018 2.9133566.3348054-.1643474-.6811625-.2814942-1.14229328-.3514405-1.38339232-.0607452-.319458-.1645508-.3663025-.9644928-.54403687-1.4786834-.1348571-2.8842163-.0651855-3.500937.0559265-.4219298.1245393-.5762724.1055421-.6488699.4609076-.1263759.4756243-.2470284.93668268-.3619576 1.3831752zM14.6993408 40.031723c1.9214173.1203919 4.7425232.1745148 6.6322174 0 .1592102-.0894979.7265524-.7672322 1.7020264-2.0332031-5.0976156-.0219015-8.4495595-.0219015-10.0558319 0 .5099182.7323914 1.4068603 1.7583008 1.7215881 2.0332031zM2.34472344 35.6859927c.41455384.4360395 3.5634521.3799257 9.48365596.3137116 2.8044941-.0313666 8.6326508-.0152136 13.5873503 0 4.1287277.0126775 7.6569944.0685933 8.2673198-.3137116-1.0907279-1.3376505-3.2420872-2.8325106-3.7062645-5.3234673.0212156-9.2628735 0-15.1482255 0-16.2265201.2231584-3.8715486-4.5610553-6.19130045-6.0009523-7.15157714-2.2429316-1.28512188-4.5748207-1.5913664-5.9619463-1.60113545-3.6866068.3664376-4.4316686.7129918-7.014099 2.2790475s-5.20433164 3.5210474-5.0276502 6.3424245c-.02205434 7.6525611 0 13.9360754 0 15.9429219 0 2.0134086-1.97882225 3.96544-3.62741376 5.7383061z"/>
    <path d="M7.4603719 14.912278c.63311523.0285104 1.2685021.1064423 1.9889508.144594-.0560193-3.6188305 3.5278024-4.8314608 5.2448078-5.60944156 2.8017086-.94129447 3.6799125-1.048269 7.2918456.23484345.1888836-.5838397.407256-1.2222724.6551172-1.9152983-1.6718992-.6136001-3.1573786-.9753812-4.4564383-1.0853434-2.4498217.000873-6.1809516 1.4226799-7.9892753 2.9171131-.8158118.3669703-2.787391 2.3039195-2.7350078 5.3135326z"/>
  </g>
</svg>
