<svg width="30" height="30" viewBox="0 0 30 30" xmlns="http://www.w3.org/2000/svg">
  <path d="M.03688456 15.0014834C-.20083728 6.65310948 6.7706114-.006637 15.0370934-.006637c7.7378917-.15200058 14.5434527 6.29842948 14.952029 13.9592329.6338396 9.5365981-6.9997711 16.1274141-14.9704817 16.0591148-8.31493987 0-14.8870714-6.332516-14.98175614-15.0102273zm4.56134085 7.8299255c.7007619.7675553 1.3860773 1.6668959 2.5985338 2.55903 2.6613714-2.796737 3.6118407-3.8198927 6.7043547-7.0910058.6863886-.5892652 1.1481693-.4620814 2.0260668 0 1.6308957 1.0051986 1.4148955 1.3848145 2.6857337 1.6593755 3.0735275-2.3524404 5.0577896-4.0954271 4.9193368-7.3327971-.6836288.3787581-2.8602152 2.0232074-4.6613604 3.1207079-2.4751092-2.3892696-3.5489338-3.3317327-5.431503-5.1397259 1.409908-1.53048762 3.4219064-3.67825107 3.8679179-4.15897584-2.3042878 0-4.9589111 1.42976446-7.2558216 5.13670944-.1649882.8225392.4977097 1.1221487 1.3132463 2.242179.534679.7544875.5221261 1.5350282 0 2.1868254-3.5092194 3.5058138-4.7237843 4.7441119-6.766505 6.8176774zM3.4672998 21.077861c1.21949276-1.094132 3.5798066-3.4054059 6.21959895-6.1387404-.6435331-.8833751-2.2498783-2.5556536-1.46042814-4.2048609 2.3646875-3.54388776 2.6464075-3.75595682 6.1844454-5.76960146 2.9788076-1.11025997 5.6263633-.50740214 5.6263633 1.59437225-.9807442 1.0013552-2.5802009 2.3357118-3.8013338 4.0108879.9172165.8931612 1.6848529 1.5851875 2.8205896 2.6471183 1.5056957-.8422624 3.212417-2.1979408 4.4859248-3.1102915 2.0352944.2539471 2.3084074 2.7286394 1.719897 4.8323754-.4328308 2.0794685-2.0582562 3.8822469-5.1061681 6.2701696-1.2921711 1.1514557-1.9953845 1.1800203-5.2171503-1.1318003-2.3366413 2.4770912-5.1237174 5.3361692-6.0137077 6.3880951 5.4855852 2.9237539 12.1409672 1.7151407 16.2409189-3.3901574 3.1540238-3.4686556 3.7171905-9.403801 1.4264729-14.0438436C24.269093 4.4113323 19.4712151 2.0434739 14.9980833 1.9828983c-4.3278708.20474313-7.9967912 1.4869436-11.2607084 6.4474194C1.13136925 12.8263573 1.828808 18.1700711 3.4672998 21.077861z" fill-rule="evenodd"/>
</svg>
