<svg width="42" height="37" viewBox="0 0 42 37" xmlns="http://www.w3.org/2000/svg">
  <path d="M1.21073008 36.0458594c-1.88140313 0-1.34510256-1.7462865-.30374627-3.3261189 2.27133894-2.7249679 5.0405588-4.3619669 7.8530123-5.8635714 1.7014791-1.3957887 2.5812879-1.7035621 1.4121286-4.8631806-1.65704195-3.2446971-2.7970857-5.385826-3.36861194-9.2030215-.32684432-3.7252661-.12965457-7.74650202 1.70999617-10.01237886C10.904504-.1291554 14.1825753-.1805821 18.6176783.12186808c2.1166884.3069402 3.2882084 1.15439323 4.8527193 2.75491668 1.3873641-.78371353 3.9885098-.99645627 6.9898674.2518104 4.0329007 2.7670443 4.6330333 7.88550694 4.7351461 9.59841924-.0105924 2.1100642 1.3962979 3.4409611 2.3966887 5.3017195 1.2484981 1.8817272 1.6924527 3.5842246 2.4532534 4.3950633.4197457.7283985.6296294 2.6140151-1.1317581 3.3693525-2.6565342 1.139204-7.4365531-.1258589-7.2841708.4416865 1.5697415 1.1207877 5.7263255 2.3996511 8.7597148 4.6353478 1.3790322.7863057 1.2521549 3.9335651-1.1755008 4.4118346-1.4077311.281374-3.3502353.1737065-7.2732004.1821773-.4138207.6535961-.7032672.5931809-1.6734281.6292945-14.8597288-.047631-15.8816438-.047631-29.05627972-.047631zm1.2322288-2.0028133c5.9189405-.0290381 20.38761612.0532933 27.18955492.0532933-1.9636921-2.7930426-4.0240479-3.8576659-5.7918793-4.7601505-.9840576-.5023651-1.8830046-.8257631-2.610925-1.6777345-2.1089035-2.4516442-1.8354484-3.9324447-1.1665668-6.5291713 1.6690869-4.7754508 2.5953853-2.5510072 3.1861872-9.1089027.1712425-2.17602716.2944708-7.26287585-2.134398-8.63291674-2.1615977-1.66647248-3.9634152-1.5590814-7.4820824-1.25284583-3.8127358.70860023-4.74310667 2.95204847-4.84602314 6.66418054-.60724234 5.48589513 1.38809024 8.51873823 3.27764054 12.48416453.4752473 2.2278649 1.3997545 3.4776414-.2451996 5.5848899-4.2249547 4.0540139-4.13681958 1.2927656-9.37630842 7.1751933zm29.14978672-.6002695c3.1256204 0 5.1188106.1518868 7.06848-.1051757.5510767-.0383581.8671797-.6589742.3645719-1.022164-4.2321718-2.6602403-8.3317631-3.6963218-9.1837887-4.9625279-.6334425-.9033072-.0346727-2.9565823 1.2616605-3.1681581 2.374748-.4058396 6.6903038.8659674 7.2143698-.6597986-.1324888-.2937518-.2997694-.6139039-.5482156-1.0159811-.1278756-.2069497-.3195552-.4533542-.4505747-.6919011-.5371349-1.2253263-1.1674243-2.2770096-1.874917-3.4461211-.6221598-1.0281014-1.3131002-1.9855867-1.7318863-2.9119927-.2897241-.6409051-.4191531-1.2906495-.4287769-1.8412385-.1347533-1.2181848-.211592-2.0204722-.3564688-2.817198-.5709295-1.89020836-.8432216-3.0442723-2.0553408-4.57062062-1.0298502-2.01827238-4.3015666-2.43360203-6.3136173-1.64003423.4309227 1.57403747 1.298828 5.81854465.2338909 11.09854785-1.0933363 3.9309857-2.8408644 3.7808335-3.1853451 8.016291 0 2.421825 1.9103914 3.4378412 3.3124267 3.9186913 3.7409437 2.1694961 5.2085589 3.5519437 6.6735314 5.8193815z" fill-rule="evenodd"/>
</svg>
