<svg width="66" height="53" viewBox="0 0 66 53" xmlns="http://www.w3.org/2000/svg">
  <path d="M31.2451089 15.9115237c.4109822-.3940449.4677257-.5068244.7127724-1.076845.2450467-.5700207.4761438-.9796185.8365983-2.5817847.1189005-.5284947.2126001-1.4686988.4223768-2.69970526.0808999-.47473522.2145685-.9915297.4010058-1.5503834.5409205-.83298542.9230215-1.41150486 1.1463031-1.73555832.3713734-.5389824.7924983-1.12105763.9436022-1.29701655.1511039-.17595892.3709918-.4733142.6913865-.82496603.2808292-.30822647.6697875-.64048452 1.1145681-1.02812235.4290471-.37392564 1.3577725-.99213506 2.7861763-1.85462828.5151021-.28918982.8907789-.48296677 1.1270303-.58133084.3788147-.15772078.7753482-.25895094 1.0537363-.31552635.4206981-.0854964 1.7220555-.25666928 3.8214734-.35232215.7143348-.0477971 1.4017836.03657807 2.7261984.1942476.2964782.05609132.5436475.11505557.8339691.17852785.5165234.11292624 1.0565214.2529045 1.5278625.4324951.1980981.07838422.3840205.2155576.6153412.34715272.3804169.20663452.7787081.4268638 1.1842194.6654358.3564478.2097068.8957214.6411438 1.5677948 1.31967163.1179659.10861104.3154711.27618257.5925155.50271458.3910512.2408152.6359543.38527573.7347092.4333816.118103.08554078.1815338.10728455.2988434.1259613.0844623-.01099413.3529816.0937958.803894.10723878.3315675.0110463.8533783.08328247 1.4883271-.0280609.2180023-.0433655.5722046-.20513917.9330902-.49128724.1787007-.118337.4661255-.33498637.8622741-.64994812.4114889-.33798218.8408458-.64961243 1.2880707-.93489075.6562958-.3639679 1.3674634-.6143927 2.0767517-.8683319.2588534-.09267462.6497327-.22472418 1.172638-.3961487L64.00612 2.74893343l-.5986328 1.0518799-.6632996.92337036-2.2054901 2.56555174c.2324912.06504388.4198793.09140598.5621643.0790863.0662832-.0057391.5772705-.0173645 1.3764954-.06025695.1853842-.00994913.5164374.01080975.9005584-.0356598.479926-.05805968 1.3300134-.22017414 2.5502625-.48634338-.2305196.62609864-.4058177 1.06589254-.5258942 1.31938172-.0556183.11695862-.2581787.60662842-.8334045 1.32540894-.2068024.23606872-.5080414.61283874-1.0837708 1.06628414-.1607887.1527855-.5181432.5065026-1.128891.9307099-.3681378.2556976-.8218231.5222625-1.3568115.8632507-.1972563.1257262-.3949432.2841797-.6126556.4686127-.1915436.2046661-.4544678.5531006-.5099183.915863-.0255949.7368355.0115704 1.4774999 0 2.2062836-.0065155.4103946-.000227.7969748 0 1.2922211.0002402.5238018-.0226745 1.279663-.0559082 2.2597351-.012561.3704309-.0470886 1.0490112-.1385192 1.9758758-.0914307.9268646-.1333161 1.398819-.3688813 2.535614-.2154388.7115174-.4897003 1.3812409-.8062591 2.1091461-.2723081.6363988-.5495911 1.3649445-.8860321 2.1757508-.2444402.5890888-.5702515 1.3797912-1.0290985 2.3931427-.3928305.8675555-1.1118622 2.3868103-2.5139466 4.5870514-.2150425.3374586-.5850885.9091037-1.1101379 1.7149353l-1.1702271 1.6963806c-.4589436.6620788-.9163665 1.285553-1.3722686 1.8704224-.4710846.5732269-.988205 1.2347412-1.5629578 1.7912445-.3849891.3727649-.7983996.7654909-1.2887268 1.1800537-.7716717.6524344-2.0442658 1.6094513-3.7423096 2.8663177-.4692931.3473637-1.0115814.8136597-1.8407593 1.3422852-.2055429.1310397-.5309405.3579875-.9962921.6490936-.7861602.4917918-1.6934509 1.0576019-3.5813903 1.8304596-.9183408.4940274-1.9523761.9790854-2.9829876 1.3020316-1.1791974.3695063-2.3583386.5556664-3.4305275.7958002-1.2538516.1192856-2.8079183.0641816-4.7365237.074125-1.1079497.0057123-3.0272402.0207658-5.7578715.0451606-1.4592378 0-2.9012239-.0397619-4.3259584-.1192856-1.7889053-.1182274-3.2729537-.16016-5.0817486-.3378666-.7732893-.1173001-1.8114989-.3205087-3.1715971-.7733952-.2672257-.088981-.70032518-.195892-1.29929842-.3207328-.84563335-.2020768-1.6091703-.4240226-2.29061087-.6658372-.5401243-.2561027-.62758447-.3442647-.9448284-.567956-.4688612-.3930299-.84273312-.715419-1.23347486-1.0429385C1.64695047 48.1130893.92772024 47.4333153 0 46.5018696l6.36880665-.1716221c.99220175-.0330253 1.9845994-.054762 2.97719294-.06521 1.0724508-.0112887 2.1450974-.0112887 3.21794 0 .5347628-.043898 1.0410282-.1748372 1.518796-.3928177 1.1771578-.6775172 1.9704325-1.2334513 2.9959423-1.5475215.2209238-.1616524 1.2304092-.3460559 1.8699405-.9248998.4466131-.4042324.3077024-.9313854.0549746-1.4194595-.9763368-.4247742-1.9249151-.6982561-2.9091526-1.1665902-1.1580528-.2611945-.9303949-.1903241-1.7818065-.3211172-1.1951035-.5251295-1.9340422-1.2824638-2.6456705-1.9201794-1.1777927-.9874214-1.83579476-1.8120826-2.88262047-3.2739288-.4177757-.5834054-1.73419006-2.0530478-.58531155-2.8152405.52915974-.3181304 1.3514394-.1429013 2.4554407 0 .6521987.0844203 1.4489633.0989355 2.3558448.3802473-.1935788-.4171329-.5346987-.9833762-.8890283-1.3371036-.5085531-.2832124-1.1222756-.6912988-2.13849325-1.0502024-1.20653613-.8822086-2.75821407-1.8188572-4.5467656-3.8435097-.43291075-.5777661-.6278338-.7771215-.90633907-1.3704281-1.10536575-2.2279715-1.71798775-3.9245213-1.6418817-4.7797299.03449542-.3389515.50335663-.9059145 1.21923006-.8923772 1.44557042.1896276 2.572253.4470376 3.54123158.5732364.40866624-.2222335.7169583-.4259534.95438-.7674755-1.12886466-.9074183-2.5158397-2.0187329-3.12843813-2.9780184-.6814658-.9479077-.98220908-1.2646168-1.317859-1.9738051-.22496946-.4753337-.54322344-1.1438402-.71325558-2.2341034-.14461805-.9273054-.260889-2.1685184-.30265547-2.99530555.12244893-2.22273583.5372942-4.8945463 1.01591105-5.59394924.14386335-.30397615.58925532-.48583643.9030373-.40998693.8913867.19518247 1.56721408.87618983 2.71536165 1.87977505.96779937.84819628 3.09297545 2.54040655 6.37552815 5.0766308 1.435426 1.0949652 2.974976 2.1026925 4.6186501 3.0231821.6640138.3484551 1.365254.655764 2.0603825.9671862 1.2071907.5408293 1.6605132.8018376 3.553684 1.2471536 1.4370312.2419903 2.8887969.6121696 4.3820303.6824547.4277464.0201336 1.0799184.0717666 1.863101.064031.4108124-.102143.2293088-.064031.6169804-.2396613z" fill="#55ADEE" fill-rule="evenodd"/>
</svg>
