<svg width="32" height="64" viewBox="0 0 32 64" xmlns="http://www.w3.org/2000/svg"><path d="M.577 31.941c-.276-.02-.348-.068-.375-.426v-10.06c0-.332.073-.413.375-.444h5.931c.427 0 .46-.112.46-.483 0-5.948.095-6.248.095-10.821.177-1.483.215-1.753.547-2.56.864-1.695 1.544-2.498 2.001-3.056.78-.954 1.097-1.272 2.948-2.411C14.342.534 14.156.738 15.665.244A22.453 22.453 0 0 1 17.61.152L31.512 0c.296.009.451.187.465.535v10.7c0 .262-.162.393-.485.393H24.02c-1.188.049-2.526.638-3.148 1.681.008 2.028 0 3.78 0 6.605 0 .695.49 1.097 1.1 1.097h10.005v10.504c-.485.942-1.706.826-3.49.999-3.215-.057-3.54 0-6.515 0-.187.017-1.096.236-1.1.936v29.712c0 .432-.351.71-.676.72H7.586c-.352-.017-.603-.006-.617-.72V32.514c-.01-.58-.335-.571-.503-.571l-5.89-.002z" fill="#3A5A99" fill-rule="evenodd"/></svg>