<svg xmlns="http://www.w3.org/2000/svg" viewBox="0 0 59.049 59.049">
  <path d="M11.285 41.39c.184.146.404.218.623.218.294 0 .585-.129.783-.377.344-.432.273-1.061-.159-1.405-.801-.638-1.577-1.331-2.305-2.06l-7.398-7.398 7.629-7.629c7.334-7.333 18.003-9.836 27.839-6.534.523.173 1.09-.107 1.267-.63.175-.523-.106-1.091-.63-1.267-10.562-3.545-22.016-.857-29.89 7.016L0 30.368l8.812 8.812c.781.782 1.614 1.525 2.473 2.21zm38.952-20.065c-1.348-1.348-2.826-2.564-4.394-3.616-.458-.307-1.081-.185-1.388.273-.308.458-.185 1.08.273 1.388 1.46.979 2.838 2.113 4.094 3.369l7.398 7.398-7.629 7.629c-7.385 7.385-18.513 9.882-28.352 6.356-.52-.187-1.093.084-1.279.604-.186.52.084 1.092.604 1.279 3.182 1.14 6.49 1.693 9.776 1.693 7.621 0 15.124-2.977 20.665-8.518l9.043-9.043-8.811-8.812z"/>
  <path d="M30.539 41.774c-2.153 0-4.251-.598-6.07-1.73-.467-.29-1.084-.148-1.377.321-.292.469-.148 1.085.321 1.377 2.135 1.33 4.6 2.032 7.126 2.032 7.444 0 13.5-6.056 13.5-13.5 0-2.685-.787-5.279-2.275-7.502-.308-.459-.93-.582-1.387-.275-.459.308-.582.929-.275 1.387 1.267 1.893 1.937 4.102 1.937 6.39 0 6.342-5.159 11.5-11.5 11.5zm0-23c2.065 0 4.089.553 5.855 1.6.474.281 1.088.125 1.37-.351.281-.475.125-1.088-.351-1.37-2.074-1.229-4.451-1.879-6.875-1.879-7.444 0-13.5 6.056-13.5 13.5 0 2.084.462 4.083 1.374 5.941.174.354.529.56.899.56.147 0 .298-.033.439-.102.496-.244.701-.843.458-1.338-.776-1.582-1.17-3.284-1.17-5.06.001-6.342 5.16-11.501 11.501-11.501zM54.621 5.567c-.391-.391-1.023-.391-1.414 0l-46.5 46.5c-.391.391-.391 1.023 0 1.414.195.195.451.293.707.293s.512-.098.707-.293l46.5-46.5c.391-.39.391-1.023 0-1.414z"/>
</svg>
