<svg width="248" height="468" viewBox="0 0 248 468" xmlns="http://www.w3.org/2000/svg">
  <g fill-rule="evenodd">
    <g fill-rule="nonzero">
      <path d="M43.133 467.064h160.781c23.78 0 43.127-19.337 43.127-43.117V43.12c0-23.78-19.347-43.12-43.127-43.12H43.133C19.37 0 .024 19.339.024 43.12v380.828c-.001 23.78 19.346 43.116 43.109 43.116zM11.873 43.12c0-17.245 14.022-31.268 31.26-31.268h160.781c17.255 0 31.275 14.023 31.275 31.268v380.828c0 17.245-14.021 31.271-31.275 31.271H43.133c-17.237 0-31.26-14.025-31.26-31.271V43.12z"/>
      <path d="M123.517 390.539c-13.81 0-25.044 11.233-25.044 25.05 0 13.808 11.235 25.045 25.044 25.045 13.81 0 25.057-11.237 25.057-25.045 0-13.807-11.247-25.05-25.057-25.05zm0 44.169c-10.54 0-19.119-8.572-19.119-19.119 0-10.537 8.579-19.123 19.119-19.123 10.555 0 19.131 8.576 19.131 19.123 0 10.537-8.576 19.119-19.131 19.119zm-97.408-52.527H220.94c1.636 0 2.961-1.33 2.961-2.965V37.313c0-1.635-1.325-2.963-2.961-2.963H26.109c-1.635 0-2.963 1.328-2.963 2.963v341.903c0 1.635 1.328 2.965 2.963 2.965zM36.971 40.276h173.108c4.356 0 7.896 3.54 7.896 7.899v320.179c0 4.362-3.539 7.901-7.896 7.901H36.971c-4.359 0-7.899-3.539-7.899-7.901V48.175c0-4.36 3.539-7.899 7.899-7.899z"/>
      <path d="M123.532 403.062c-6.914 0-12.53 5.616-12.53 12.527 0 6.906 5.616 12.522 12.53 12.522 6.898 0 12.515-5.616 12.515-12.522 0-6.911-5.616-12.527-12.515-12.527zm0 19.124c-3.641 0-6.604-2.961-6.604-6.597 0-3.641 2.963-6.606 6.604-6.606 3.626 0 6.589 2.966 6.589 6.606 0 3.636-2.963 6.597-6.589 6.597z"/>
    </g>
    <circle cx="69" cy="171" r="20"/>
    <circle cx="179" cy="226" r="20"/>
    <circle cx="124" cy="336" r="20"/>
    <circle cx="124" cy="281" r="20"/>
    <circle cx="69" cy="281" r="20"/>
    <circle cx="179" cy="171" r="20"/>
    <circle cx="124" cy="171" r="20"/>
    <circle cx="179" cy="281" r="20"/>
    <circle cx="124" cy="226" r="20"/>
    <circle cx="69" cy="226" r="20"/>
    <circle cx="179" cy="116" r="20"/>
    <circle cx="124" cy="116" r="20"/>
    <circle cx="69" cy="116" r="20"/>
  </g>
</svg>
