<svg width="35" height="40" viewBox="0 0 35 40" xmlns="http://www.w3.org/2000/svg">
  <g fill-rule="evenodd">
    <path d="M.09880066 2.00704956H10.036188V.00781193h13.9902733v1.99923763h9.9797398V40.0007477H-.00256348L.09880066 2.00704956zM12.0440349 1.9940081v2.0093217H2.12605806L1.9967935 38.0111607h30.0105077V4.0033298h-9.9913454V1.9940081h-9.9719209z"/>
    <path d="M4.00422668 6.00309753h4.00244624V4.99413325H11.992709v1.00896428h10.0413439V4.99413325h4.0094822v1.00896428h3.9553052V35.9973241H4.00422668V6.00309753zM6.00540932 8.0069797v25.9966699H28.0024988V8.0069797H6.00540932z"/>
    <path d="M10.9988708 13.0023651v1.0014343h-.9976348v1.9981385h.9976348v1.0046386h2.0036927v-1.0046386h.9985962v-1.9981385h-.9985962v-1.0014343m6.0018615-3.00497435h5.9954377v2.00939945H19.004425M19 18h5.9954376v2.0093994H19m-9.9966583 1.9909821h15.992279v2.001419H9.0033417M9 30h15.9922791v2.0014191H9M9 26h15.9922791v2.0014191H9M19 14h5.9954376v2.0093994H19"/>
  </g>
</svg>
